# xmcd
#
# Track frame offsets:
#	150
#	16844
#	37528
#	58292
#	77604
#	99281
#	116643
#	134829
#	153945
#	173031
#	192887
#	212224
#	228798
#	245432
#	260224
#	279988
#	300755
#
# Disc length: 4186 seconds
#
# Revision: 0
# Processed by: cddbd v1.4PL0 Copyright (c) Steve Scherf et al.
# Submitted via: EasyCDDAExtractor 4.6.9.1
#
DISCID=d7105811
DTITLE=Zeze di Camrgo and Luciano - 10 Anos de sucesso 
DYEAR=1900
DGENRE=Country
TTITLE0=Tarde Demais
TTITLE1=Cada Volta é um Recomeco
TTITLE2=Dou a Vida por Um Beijo
TTITLE3=Será que Foi Saudade
TTITLE4=Vivendo por Viver
TTITLE5=Pedras
TTITLE6=Voce Vair Ver
TTITLE7=Pare
TTITLE8=Faz Mais Uma Vez Comigo 
TTITLE9=Saudade Bandida
TTITLE10=Ta Escrito em seu Olhar
TTITLE11=Brigue comigo mas não Vá
TTITLE12=Ainda Sou o Mesmo Homem
TTITLE13=Entre Ele e Eu
TTITLE14=Amor Selvagem
TTITLE15=Dois Amigos
TTITLE16=Muda De Vida
EXTD=
EXTT0=
EXTT1=
EXTT2=
EXTT3=
EXTT4=
EXTT5=
EXTT6=
EXTT7=
EXTT8=
EXTT9=
EXTT10=
EXTT11=
EXTT12=
EXTT13=
EXTT14=
EXTT15=
EXTT16=
PLAYORDER=
